<?xml version="1.0" standalone="no"?>
<!DOCTYPE svg PUBLIC "-//W3C//DTD SVG 20010904//EN"
 "http://www.w3.org/TR/2001/REC-SVG-20010904/DTD/svg10.dtd">
<svg version="1.0" xmlns="http://www.w3.org/2000/svg"
 width="1000.000000pt" height="1000.000000pt" viewBox="0 0 1000.000000 1000.000000"
 preserveAspectRatio="xMidYMid meet">
<metadata>
Created by potrace 1.14, written by Peter Selinger 2001-2017
</metadata>
<g transform="translate(0.000000,1000.000000) scale(0.100000,-0.100000)"
fill="#000000" stroke="none">
<path d="M3774 9478 c-5 -7 -3 -8 6 -3 9 5 11 4 6 -4 -5 -8 -12 -9 -19 -3 -7
5 -19 8 -27 7 -8 -2 -30 -6 -49 -10 -19 -3 -39 -9 -45 -13 -6 -3 -18 -7 -26
-9 -9 -1 -54 -22 -100 -46 -56 -28 -85 -48 -84 -59 1 -9 -5 -15 -14 -14 -9 2
-31 -12 -49 -31 -27 -26 -32 -37 -24 -51 7 -14 6 -19 -4 -19 -7 0 -11 7 -8 15
5 11 2 12 -14 4 -30 -16 -46 -39 -33 -47 15 -10 12 -19 -12 -34 l-23 -14 20
23 20 23 -23 -14 c-21 -13 -109 -172 -115 -208 -1 -9 -5 -20 -8 -26 -9 -15
-18 -55 -25 -113 -4 -37 -2 -57 7 -69 9 -11 10 -14 2 -10 -8 5 -14 0 -18 -15
-3 -13 -5 -191 -3 -396 l3 -372 -1355 0 c-1496 0 -1418 3 -1529 -63 -70 -42
-137 -117 -175 -197 l-31 -65 -3 -1885 c-2 -2044 -5 -1924 51 -2028 23 -43
123 -152 139 -152 4 0 8 -607 8 -1348 0 -1471 -3 -1405 57 -1514 32 -58 113
-138 172 -168 104 -53 -163 -50 4542 -50 3116 0 4382 3 4425 11 155 29 282
138 328 284 14 45 16 199 19 1411 l2 1360 60 56 c67 62 105 123 129 209 15 50
16 235 14 1920 l-3 1864 -22 54 c-53 128 -146 223 -271 273 l-57 23 -1372 3
-1373 2 -1 395 c-2 444 -1 425 -13 444 -6 10 -5 12 3 7 14 -9 4 41 -13 63 -9
12 -8 13 4 6 12 -7 13 -6 3 7 -7 8 -10 18 -6 22 4 4 1 11 -7 16 -8 5 -14 21
-15 37 0 20 -5 27 -15 25 -8 -2 -12 0 -8 4 4 4 2 14 -5 22 -10 13 -9 14 1 8
12 -7 12 -4 1 15 -7 13 -14 30 -15 38 -2 7 -13 24 -26 38 -13 13 -22 27 -20
29 1 2 -10 21 -25 42 -60 80 -157 167 -175 156 -5 -3 -7 0 -6 6 2 6 -17 23
-42 38 -26 15 -41 20 -35 11 6 -8 2 -7 -7 4 -10 10 -23 15 -29 11 -7 -4 -9 -3
-6 3 8 13 -20 26 -34 17 -6 -4 -6 -10 0 -18 8 -9 7 -13 -4 -13 -8 0 -13 3 -10
5 3 3 -1 12 -8 20 -10 13 -9 14 3 7 11 -6 12 -5 4 4 -11 12 -52 25 -119 39
-51 10 -2417 13 -2411 3 3 -5 -1 -11 -9 -14 -9 -4 -12 -1 -8 9 6 17 -32 20
-43 2z m-117 -90 c-16 -9 -27 0 -21 17 5 11 9 12 19 2 9 -8 10 -14 2 -19z
m2757 4 c3 -5 -1 -9 -9 -9 -8 0 -12 4 -9 9 3 4 7 8 9 8 2 0 6 -4 9 -8z m195
-158 c-6 -7 -15 -11 -21 -8 -5 3 -4 12 3 20 6 7 15 11 21 8 5 -3 4 -12 -3 -20z
m-3339 -104 c0 -5 -5 -10 -11 -10 -5 0 -7 5 -4 10 3 6 8 10 11 10 2 0 4 -4 4
-10z m3495 -38 c-3 -3 -11 0 -18 7 -9 10 -8 11 6 5 10 -3 15 -9 12 -12z
m-3587 -147 c-3 -3 -9 2 -12 12 -6 14 -5 15 5 6 7 -7 10 -15 7 -18z m3672
-190 c0 -12 -19 -12 -23 0 -4 9 -1 12 9 8 7 -3 14 -7 14 -8z m-969 -449 c0
-104 -2 -190 -4 -192 -2 -2 -401 -4 -888 -4 l-884 0 -3 195 -2 195 890 -2 891
-3 0 -189z m946 -308 c-3 -8 -6 -5 -6 6 -1 11 2 17 5 13 3 -3 4 -12 1 -19z
m27 -8 c-6 -6 -10 -3 -10 10 0 13 4 16 10 10 7 -7 7 -13 0 -20z m-1277 -4672
c-1 -57 -3 -11 -3 102 0 113 2 159 3 103 2 -57 2 -149 0 -205z m-20 -118 c-1
-11 -5 -20 -9 -20 -10 0 -10 4 -2 24 8 22 13 20 11 -4z m37 -15 c-4 -8 -10
-12 -15 -9 -11 6 -2 24 11 24 5 0 7 -7 4 -15z"/>
</g>
</svg>
